<svg xmlns="http://www.w3.org/2000/svg" viewBox="0 0 471.21 417.73">
    <g data-name="Natron Logo">
      <path d="M335.41 12H135.8A24 24 0 00115 24L15.22 196.86a24 24 0 000 24L115 393.73a24 24 0 0020.78 12h199.63a24 24 0 0020.78-12L456 220.86a24 24 0 000-24L356.19 24a24 24 0 00-20.78-12z" stroke="#fff" stroke-miterlimit="10" stroke-width="24"/>
      <path d="M319.9 62.86v130a4.05 4.05 0 01-4 4 4.06 4.06 0 01-3.54-2l-69.71-120.7a24 24 0 00-20.36-11.3h-57.12a24 24 0 00-20.79 12L74 196.86a24 24 0 000 24l77.36 134v-130a4 4 0 014-4 4 4 0 013.5 2l69.7 120.73a24 24 0 0020.34 11.25H306a24 24 0 0020.79-12l70.43-122a24 24 0 000-24z" fill="#fff"/>
    </g>
</svg>
