<?xml version="1.0" encoding="UTF-8" standalone="no"?>
<svg
   xmlns:dc="http://purl.org/dc/elements/1.1/"
   xmlns:cc="http://creativecommons.org/ns#"
   xmlns:rdf="http://www.w3.org/1999/02/22-rdf-syntax-ns#"
   xmlns:svg="http://www.w3.org/2000/svg"
   xmlns="http://www.w3.org/2000/svg"
   xmlns:sodipodi="http://sodipodi.sourceforge.net/DTD/sodipodi-0.dtd"
   xmlns:inkscape="http://www.inkscape.org/namespaces/inkscape"
   inkscape:export-ydpi="96"
   inkscape:export-xdpi="96"
   inkscape:export-filename="C:\Users\MSI-Gaming\Projects\Natron UI 2.0 Project\Hi-Res Output\PNG\Final Icon.png"
   inkscape:version="1.0 (4035a4fb49, 2020-05-01)"
   sodipodi:docname="Final Icon Design.svg"
   id="svg8"
   style="fill:none"
   height="1024"
   width="1024"
   version="1.1">
  <metadata
     id="metadata14">
    <rdf:RDF>
      <cc:Work
         rdf:about="">
        <dc:format>image/svg+xml</dc:format>
        <dc:type
           rdf:resource="http://purl.org/dc/dcmitype/StillImage" />
        <dc:title></dc:title>
      </cc:Work>
    </rdf:RDF>
  </metadata>
  <defs
     id="defs12" />
  <sodipodi:namedview
     inkscape:snap-midpoints="true"
     inkscape:snap-smooth-nodes="true"
     inkscape:snap-intersection-paths="true"
     inkscape:object-paths="true"
     inkscape:snap-global="true"
     inkscape:current-layer="svg8"
     inkscape:window-maximized="1"
     inkscape:window-y="-9"
     inkscape:window-x="-9"
     inkscape:cy="498.57704"
     inkscape:cx="402.98969"
     inkscape:zoom="0.54223219"
     showgrid="false"
     id="namedview10"
     inkscape:window-height="1001"
     inkscape:window-width="1920"
     inkscape:pageshadow="2"
     inkscape:pageopacity="0"
     guidetolerance="10"
     gridtolerance="10"
     objecttolerance="10"
     borderopacity="1"
     bordercolor="#666666"
     pagecolor="#ffffff"
     inkscape:document-rotation="0" />
  <path
     id="path2"
     style="fill:none;stroke:#6a6a6a;stroke-width:15;stroke-linecap:round;stroke-linejoin:round"
     d="" />
  <path
     id="path4"
     style="fill:none;stroke:#4a4a4a;stroke-width:15;stroke-linecap:round;stroke-linejoin:round"
     d="" />
  <g
     id="g869" />
  <g
     transform="translate(-1411.2298,91.883726)"
     id="g998">
    <g
       id="g985"
       transform="translate(-527.25487,-1871.2379)">
      <path
         sodipodi:nodetypes="csccsccsccsccscccscc"
         id="path977"
         d="m 2736.8032,2109.0374 c 0,0 11.3951,8.8675 13.9585,34.6421 2.5633,25.7746 3.0527,174.8294 3.0527,174.8294 v 110.1205 c 0,0 6.0493,28.2716 -16.0205,43.6742 -22.0697,15.4026 -121.1782,72.6227 -121.1782,72.6227 l -120.1875,69.3371 c 0,0 -35.7751,34.9146 -76.6944,7.749 -40.9193,-27.1656 -148.648,-85.6658 -148.648,-85.6658 l -99.6762,-58.4016 c 0,0 -22.0904,-13.4124 -22.2643,-44.2962 -0.1739,-30.8839 -0.327,-123.9203 -0.327,-123.9203 l 0.2823,-128.7202 c 0,0 -15.5495,-55.1323 27.9255,-80.4275 43.475,-25.295 133.0056,-76.9639 133.0056,-76.9639 l 98.0126,-56.5933 21.574,-11.9998 c 0,0 24.56,-9.8136 41.0519,-1.0037 16.492,8.81 133.7602,76.432 133.7602,76.432 z"
         style="fill:#000000;fill-opacity:1;stroke:none;stroke-width:0.739615px;stroke-linecap:butt;stroke-linejoin:miter;stroke-opacity:1" />
      <path
         id="path981"
         style="fill:none;fill-opacity:1;stroke:#f6f6f6;stroke-width:15;stroke-linecap:round;stroke-linejoin:round;stroke-opacity:1"
         d="m 2270.4846,2102.6034 v 0 60 0 h 60 v 0 -60 0 h -60 m 120,120 v 0 120 0 h 120 v 0 -120 0 h -120 m 180,180 v 0 60 0 h 60 v 0 -60 0 h -60 m -240,-240 a 60,60 0 0 1 60,60 m 120,120 a 60,60 0 0 1 60,60" />
    </g>
  </g>
</svg>
