<svg xmlns="http://www.w3.org/2000/svg" height="48" width="48"><g style="line-height:1.25;-inkscape-font-specification:'Noto Sans CJK SC, Normal'" aria-label="OFX" font-size="88.203" font-family="Inter" fill="#667eea" stroke-width="2.363" font-weight="700"><path style="-inkscape-font-specification:Inter" d="M17.608 24c0-4.753-2.952-7.464-6.804-7.464C6.93 16.536 4 19.246 4 24c0 4.732 2.93 7.464 6.804 7.464 3.852 0 6.804-2.71 6.804-7.464zm-3.115 0c0 3.08-1.461 4.746-3.69 4.746-2.234 0-3.688-1.667-3.688-4.746 0-3.08 1.454-4.746 3.689-4.746 2.228 0 3.69 1.667 3.69 4.746zM19.878 31.265h3.072v-6.002h5.91V22.73h-5.91v-3.462h6.548v-2.533h-9.62zM34.443 16.735H30.96L35.422 24l-4.547 7.265h3.519l2.98-4.96h.113l2.98 4.96H44L39.466 24l4.435-7.265h-3.47l-2.944 4.952h-.113z"/></g></svg>